<?xml version="1.0" standalone="no"?>
<!DOCTYPE svg PUBLIC "-//W3C//DTD SVG 20010904//EN"
 "http://www.w3.org/TR/2001/REC-SVG-20010904/DTD/svg10.dtd">
<svg version="1.0" xmlns="http://www.w3.org/2000/svg"
 width="1013.000000pt" height="618.000000pt" viewBox="0 0 1013.000000 618.000000"
 preserveAspectRatio="xMidYMid meet">

<g transform="translate(0.000000,618.000000) scale(0.100000,-0.100000)"
fill="#000000" stroke="none">
<path d="M5080 5730 c0 -5 -7 -10 -15 -10 -13 0 -15 -49 -15 -380 l0 -380 35
0 35 0 0 390 c0 383 0 390 -20 390 -11 0 -20 -4 -20 -10z"/>
<path d="M4690 5630 c0 -16 5 -30 10 -30 6 0 10 -13 10 -30 0 -16 5 -30 10
-30 6 0 10 -11 10 -25 0 -14 5 -25 10 -25 6 0 10 -9 10 -20 0 -11 5 -20 10
-20 6 0 10 -13 10 -30 0 -16 5 -30 10 -30 6 0 10 -9 10 -20 0 -11 5 -20 10
-20 6 0 10 -13 10 -30 0 -16 5 -30 10 -30 6 0 10 -9 10 -20 0 -11 5 -20 10
-20 6 0 10 -13 10 -30 0 -16 5 -30 10 -30 6 0 10 -9 10 -20 0 -11 5 -20 10
-20 6 0 10 -9 10 -20 0 -11 5 -20 10 -20 6 0 10 -16 10 -35 0 -19 5 -35 10
-35 6 0 10 -9 10 -20 0 -11 5 -20 10 -20 6 0 10 -13 10 -30 0 -27 3 -30 30
-30 23 0 30 4 30 20 0 11 -4 20 -10 20 -5 0 -10 14 -10 30 0 17 -4 30 -10 30
-5 0 -10 11 -10 25 0 14 -4 25 -10 25 -5 0 -10 9 -10 20 0 11 -4 20 -10 20 -5
0 -10 14 -10 30 0 17 -4 30 -10 30 -5 0 -10 9 -10 20 0 11 -4 20 -10 20 -5 0
-10 14 -10 30 0 17 -4 30 -10 30 -5 0 -10 9 -10 20 0 11 -4 20 -10 20 -5 0
-10 9 -10 20 0 11 -4 20 -10 20 -5 0 -10 14 -10 30 0 17 -4 30 -10 30 -5 0
-10 9 -10 20 0 11 -4 20 -10 20 -5 0 -10 16 -10 35 0 19 -4 35 -10 35 -5 0
-10 9 -10 20 0 11 -4 20 -10 20 -5 0 -10 12 -10 26 0 29 -21 54 -44 54 -11 0
-16 -9 -16 -30z"/>
<path d="M5440 5640 c0 -11 -4 -20 -10 -20 -5 0 -10 -9 -10 -20 0 -11 -4 -20
-10 -20 -5 0 -10 -16 -10 -35 0 -19 -4 -35 -10 -35 -5 0 -10 -9 -10 -20 0 -11
-4 -20 -10 -20 -5 0 -10 -13 -10 -30 0 -16 -4 -30 -10 -30 -5 0 -10 -9 -10
-20 0 -11 -4 -20 -10 -20 -5 0 -10 -9 -10 -20 0 -11 -4 -20 -10 -20 -5 0 -10
-13 -10 -30 0 -16 -4 -30 -10 -30 -5 0 -10 -9 -10 -20 0 -11 -4 -20 -10 -20
-5 0 -10 -13 -10 -30 0 -16 -4 -30 -10 -30 -5 0 -10 -9 -10 -20 0 -11 -4 -20
-10 -20 -5 0 -10 -9 -10 -20 0 -11 -4 -20 -10 -20 -5 0 -10 -16 -10 -35 0 -19
-4 -35 -10 -35 -5 0 -10 -9 -10 -20 0 -11 -4 -20 -10 -20 -5 0 -10 -9 -10 -20
0 -16 7 -20 30 -20 23 0 30 4 30 20 0 11 5 20 10 20 6 0 10 14 10 30 0 17 5
30 10 30 6 0 10 11 10 25 0 14 5 25 10 25 6 0 10 14 10 30 0 17 5 30 10 30 6
0 10 9 10 20 0 11 5 20 10 20 6 0 10 14 10 30 0 17 5 30 10 30 6 0 10 9 10 20
0 11 5 20 10 20 6 0 10 9 10 20 0 11 5 20 10 20 6 0 10 14 10 30 0 17 5 30 10
30 6 0 10 9 10 20 0 11 5 20 10 20 6 0 10 14 10 30 0 17 5 30 10 30 6 0 10 11
10 25 0 14 5 25 10 25 6 0 10 9 10 20 0 11 5 20 10 20 6 0 10 18 10 40 0 33
-3 40 -20 40 -13 0 -20 -7 -20 -20z"/>
<path d="M4373 5435 c-7 -8 -13 -19 -13 -25 0 -10 265 -280 275 -280 8 0 55
-47 55 -55 0 -10 190 -195 201 -195 6 0 17 7 25 15 13 13 6 24 -65 94 -45 44
-81 83 -81 86 0 7 -128 135 -135 135 -3 0 -59 54 -125 120 -66 66 -121 120
-122 120 -2 -1 -9 -7 -15 -15z"/>
<path d="M5650 5320 c-69 -71 -128 -129 -133 -129 -9 -1 -117 -108 -117 -116
0 -3 -36 -42 -81 -86 -71 -70 -78 -81 -65 -94 8 -8 19 -15 25 -15 11 0 201
185 201 196 0 7 27 34 34 34 4 0 71 65 151 145 110 109 145 151 145 170 0 47
-33 25 -160 -105z"/>
<path d="M4140 5113 c-10 -12 -11 -18 -2 -21 7 -2 12 -10 12 -18 0 -8 10 -14
25 -14 14 0 25 -4 25 -10 0 -5 14 -10 30 -10 17 0 30 -4 30 -10 0 -5 9 -10 20
-10 11 0 20 -4 20 -10 0 -5 14 -10 30 -10 17 0 30 -4 30 -10 0 -5 9 -10 20
-10 11 0 20 -4 20 -10 0 -5 14 -10 30 -10 17 0 30 -4 30 -10 0 -5 9 -10 20
-10 11 0 20 -4 20 -10 0 -5 9 -10 20 -10 11 0 20 -4 20 -10 0 -5 14 -10 30
-10 17 0 30 -4 30 -10 0 -5 11 -10 25 -10 14 0 25 -4 25 -10 0 -5 14 -10 30
-10 17 0 30 -4 30 -10 0 -5 9 -10 20 -10 11 0 20 -4 20 -10 0 -5 9 -10 20 -10
11 0 20 -4 20 -10 0 -5 18 -10 40 -10 33 0 40 3 40 20 0 13 -7 20 -20 20 -11
0 -20 5 -20 10 0 6 -9 10 -20 10 -11 0 -20 5 -20 10 0 6 -13 10 -30 10 -16 0
-30 5 -30 10 0 6 -9 10 -20 10 -11 0 -20 5 -20 10 0 6 -16 10 -35 10 -19 0
-35 5 -35 10 0 6 -9 10 -20 10 -11 0 -20 5 -20 10 0 6 -9 10 -20 10 -11 0 -20
5 -20 10 0 6 -13 10 -30 10 -16 0 -30 5 -30 10 0 6 -9 10 -20 10 -11 0 -20 5
-20 10 0 6 -13 10 -30 10 -16 0 -30 5 -30 10 0 6 -9 10 -20 10 -11 0 -20 5
-20 10 0 6 -9 10 -20 10 -11 0 -20 7 -20 15 0 10 -10 15 -30 15 -16 0 -30 5
-30 10 0 6 -9 10 -20 10 -11 0 -20 5 -20 10 0 16 -44 11 -60 -7z"/>
<path d="M5980 5120 c0 -5 -11 -10 -25 -10 -14 0 -25 -4 -25 -10 0 -5 -9 -10
-20 -10 -11 0 -20 -7 -20 -15 0 -10 -10 -15 -30 -15 -16 0 -30 -4 -30 -10 0
-5 -9 -10 -20 -10 -11 0 -20 -4 -20 -10 0 -5 -13 -10 -30 -10 -16 0 -30 -4
-30 -10 0 -5 -9 -10 -20 -10 -11 0 -20 -4 -20 -10 0 -5 -9 -10 -20 -10 -11 0
-20 -4 -20 -10 0 -5 -13 -10 -30 -10 -16 0 -30 -4 -30 -10 0 -5 -9 -10 -20
-10 -11 0 -20 -4 -20 -10 0 -5 -16 -10 -35 -10 -19 0 -35 -4 -35 -10 0 -5 -9
-10 -20 -10 -11 0 -20 -4 -20 -10 0 -5 -13 -10 -30 -10 -16 0 -30 -4 -30 -10
0 -5 -9 -10 -20 -10 -11 0 -20 -4 -20 -10 0 -5 -9 -10 -20 -10 -24 0 -25 -6
-6 -26 17 -16 66 -19 66 -4 0 6 9 10 20 10 11 0 20 5 20 10 0 6 14 10 30 10
17 0 30 5 30 10 0 6 11 10 25 10 14 0 25 5 25 10 0 6 9 10 20 10 11 0 20 5 20
10 0 6 14 10 30 10 17 0 30 5 30 10 0 6 9 10 20 10 11 0 20 5 20 10 0 6 14 10
30 10 17 0 30 5 30 10 0 6 9 10 20 10 11 0 20 5 20 10 0 6 9 10 20 10 11 0 20
5 20 10 0 6 14 10 30 10 17 0 30 5 30 10 0 6 9 10 20 10 11 0 20 5 20 10 0 6
16 10 35 10 19 0 35 5 35 10 0 6 9 10 20 10 11 0 20 6 20 14 0 8 6 16 12 18 9
3 8 9 -4 21 -18 19 -48 23 -48 7z"/>
<path d="M4083 4705 c-17 -18 -19 -1525 -3 -1525 6 0 10 -27 10 -60 0 -33 4
-60 10 -60 6 0 10 -9 10 -20 0 -11 5 -20 10 -20 6 0 10 -13 10 -28 0 -16 8
-34 20 -42 11 -8 20 -22 20 -32 0 -10 7 -18 15 -18 9 0 15 -9 15 -21 0 -12 14
-34 30 -49 17 -15 30 -33 30 -39 0 -14 226 -241 241 -241 6 0 28 -18 49 -40
21 -22 46 -40 54 -40 9 0 16 -4 16 -10 0 -5 7 -10 15 -10 8 0 15 -5 15 -11 0
-14 26 -39 40 -39 7 0 25 -13 40 -30 15 -16 34 -30 42 -30 7 0 20 -9 28 -20 8
-11 22 -20 32 -20 10 0 18 -4 18 -10 0 -5 8 -10 18 -10 10 0 24 -9 32 -20 8
-11 21 -20 30 -20 9 0 22 -9 30 -20 8 -11 22 -20 32 -20 10 0 18 -4 18 -10 0
-5 9 -10 20 -10 11 0 20 -4 20 -10 0 -5 16 -10 35 -10 19 0 35 5 35 10 0 6 9
10 20 10 11 0 20 5 20 10 0 6 9 10 20 10 11 0 20 5 20 10 0 6 8 10 18 10 10 0
24 9 32 20 8 11 21 20 30 20 9 0 22 9 30 20 8 11 21 20 30 20 9 0 22 9 30 20
8 11 21 20 30 20 9 0 22 9 30 20 8 11 21 20 30 20 9 0 22 9 30 20 8 11 20 20
27 20 7 0 13 7 13 15 0 8 7 15 16 15 8 0 33 18 54 40 21 22 43 40 49 40 14 0
281 266 281 281 0 14 25 39 39 39 6 0 11 10 11 23 0 12 9 29 20 37 11 8 20 22
20 32 0 10 5 18 10 18 6 0 10 9 10 20 0 11 5 20 10 20 6 0 10 14 10 30 0 17 5
30 10 30 6 0 10 18 10 40 0 22 5 40 10 40 7 0 10 265 10 776 0 659 -2 778 -14
790 -12 12 -83 14 -430 14 -271 0 -416 -3 -416 -10 0 -5 -9 -10 -20 -10 -11 0
-20 -4 -20 -10 0 -5 -7 -10 -16 -10 -15 0 -44 -23 -44 -35 0 -3 -12 -18 -27
-33 -17 -17 -28 -22 -31 -14 -2 7 -8 12 -14 12 -10 0 -38 25 -38 35 0 16 -52
55 -75 55 -14 0 -25 5 -25 10 0 7 -146 10 -417 10 -348 -1 -420 -3 -430 -15z
m647 -470 c0 -168 -1 -175 -20 -175 -19 0 -20 7 -20 145 0 80 -4 145 -8 145
-4 0 -14 -9 -22 -20 -17 -24 -60 -27 -60 -4 0 17 23 44 37 44 5 0 15 9 23 20
8 12 26 20 42 20 l28 0 0 -175z m260 155 c0 -11 5 -20 10 -20 20 0 11 -72 -11
-91 l-22 -19 32 -29 c25 -23 31 -37 31 -70 0 -23 -4 -41 -10 -41 -5 0 -10 -9
-10 -20 0 -13 -7 -20 -20 -20 -11 0 -20 -4 -20 -10 0 -5 -22 -10 -50 -10 -27
0 -50 5 -50 10 0 6 -7 10 -16 10 -28 0 -44 27 -44 77 0 37 5 52 20 63 21 15
28 50 10 50 -5 0 -10 9 -10 20 0 11 -4 20 -10 20 -5 0 -10 9 -10 20 0 11 5 20
10 20 6 0 10 7 10 15 0 33 24 44 93 45 60 0 67 -2 67 -20z m285 -5 c19 -18 25
-35 25 -65 0 -35 -6 -47 -40 -80 -22 -21 -40 -41 -40 -45 0 -4 -13 -20 -30
-35 -50 -47 -41 -60 40 -60 63 0 70 -2 70 -20 0 -19 -7 -20 -110 -20 l-110 0
0 26 c0 17 14 39 40 64 22 21 40 41 40 45 0 3 23 28 50 55 52 50 62 80 36 106
-22 21 -79 18 -96 -6 -17 -24 -50 -27 -50 -5 0 9 10 27 23 40 32 35 118 35
152 0z m270 0 c32 -31 33 -80 4 -106 l-22 -19 32 -29 c44 -42 43 -89 -4 -136
-31 -32 -40 -35 -90 -35 -76 0 -105 27 -105 100 0 27 5 50 10 50 6 0 10 9 10
19 0 11 6 22 13 25 10 5 10 7 0 12 -7 3 -13 14 -13 25 0 10 -4 19 -10 19 -5 0
-10 9 -10 20 0 11 5 20 10 20 6 0 10 7 10 15 0 31 24 44 83 45 48 0 62 -4 82
-25z m-415 -445 c8 -11 22 -20 32 -20 10 0 18 -4 18 -10 0 -5 8 -10 18 -10 10
0 24 -9 32 -20 8 -11 22 -20 32 -20 10 0 18 -4 18 -10 0 -5 9 -10 20 -10 11 0
20 -4 20 -10 0 -5 8 -10 18 -10 10 0 24 -9 32 -20 8 -11 22 -20 32 -20 10 0
18 -4 18 -10 0 -5 9 -10 20 -10 11 0 20 -7 20 -15 0 -8 9 -15 20 -15 11 0 20
-4 20 -10 0 -5 7 -10 15 -10 8 0 15 -4 15 -10 0 -5 9 -10 20 -10 11 0 20 -4
20 -10 0 -5 9 -10 20 -10 11 0 20 -4 20 -10 0 -5 8 -10 18 -10 10 0 24 -9 32
-20 8 -11 22 -20 32 -20 10 0 18 -4 18 -10 0 -5 9 -10 20 -10 11 0 20 -4 20
-10 0 -5 8 -10 18 -10 10 0 24 -9 32 -20 8 -11 22 -20 32 -20 10 0 18 -4 18
-10 0 -5 9 -10 20 -10 11 0 20 -4 20 -10 0 -5 8 -10 18 -10 10 0 24 -9 32 -20
8 -11 23 -20 33 -20 23 0 76 -52 59 -58 -17 -5 -17 -208 1 -216 10 -5 10 -7 0
-12 -7 -3 -13 -23 -13 -45 0 -21 -4 -39 -10 -39 -5 0 -10 -9 -10 -20 0 -11 -4
-20 -10 -20 -5 0 -10 -13 -10 -30 0 -16 -5 -30 -11 -30 -15 0 -39 -26 -39 -42
0 -8 -9 -20 -20 -28 -11 -8 -20 -23 -20 -33 0 -10 -22 -40 -50 -67 -27 -27
-50 -54 -50 -60 0 -17 -26 -40 -44 -40 -9 0 -16 -8 -16 -20 0 -13 -7 -20 -20
-20 -13 0 -20 -7 -20 -20 0 -11 -7 -20 -16 -20 -8 0 -37 -22 -64 -50 -27 -28
-56 -50 -64 -50 -9 0 -16 -4 -16 -10 0 -5 -6 -10 -13 -10 -7 0 -19 -9 -27 -20
-8 -11 -20 -20 -28 -20 -16 0 -42 -24 -42 -39 0 -6 -8 -11 -18 -11 -10 0 -24
-9 -32 -20 -8 -11 -21 -20 -30 -20 -9 0 -22 -9 -30 -20 -8 -11 -21 -20 -30
-20 -9 0 -22 -9 -30 -20 -8 -11 -21 -20 -30 -20 -9 0 -22 -9 -30 -20 -8 -11
-22 -20 -32 -20 -10 0 -18 -4 -18 -10 0 -5 -9 -10 -19 -10 -11 0 -22 -6 -25
-12 -5 -10 -7 -10 -12 0 -3 6 -16 12 -28 12 -12 0 -28 9 -36 20 -8 11 -22 20
-32 20 -10 0 -18 5 -18 10 0 6 -8 10 -18 10 -10 0 -24 9 -32 20 -8 11 -21 20
-30 20 -9 0 -22 9 -30 20 -8 11 -21 20 -30 20 -9 0 -22 9 -30 20 -8 11 -22 20
-32 20 -10 0 -18 5 -18 10 0 15 -47 60 -62 60 -8 0 -20 9 -28 20 -8 11 -20 20
-27 20 -7 0 -13 5 -13 10 0 6 -7 10 -15 10 -21 0 -325 306 -325 328 0 10 -9
24 -20 32 -11 8 -20 22 -20 32 0 10 -4 18 -10 18 -5 0 -10 9 -10 20 0 11 -4
20 -10 20 -5 0 -10 9 -10 20 0 11 -7 20 -15 20 -10 0 -15 10 -15 30 0 17 -4
30 -10 30 -6 0 -10 60 -10 161 0 171 5 189 49 189 12 0 21 5 21 10 0 6 8 10
18 10 10 0 24 9 32 20 8 11 22 20 32 20 10 0 18 5 18 10 0 6 9 10 20 10 11 0
20 5 20 10 0 6 8 10 18 10 10 0 24 9 32 20 8 11 22 20 32 20 10 0 18 5 18 10
0 6 9 10 20 10 11 0 20 5 20 10 0 6 8 10 18 10 10 0 24 9 32 20 8 11 22 20 32
20 10 0 18 5 18 10 0 6 10 10 23 10 12 0 29 9 37 20 8 11 22 20 32 20 10 0 18
7 18 15 0 8 9 15 20 15 11 0 20 5 20 10 0 6 9 10 20 10 11 0 20 5 20 10 0 6 8
10 18 10 10 0 24 9 32 20 8 11 22 20 32 20 10 0 18 5 18 10 0 6 8 10 18 10 10
0 24 9 32 20 8 11 22 20 32 20 10 0 18 5 18 10 0 6 9 10 20 10 11 0 20 5 20
10 0 6 11 10 25 10 14 0 25 5 25 10 0 18 35 11 50 -10z"/>
<path d="M4870 4334 c0 -40 19 -64 50 -64 12 0 28 6 36 14 8 8 14 24 14 36 0
31 -24 50 -64 50 -35 0 -36 -1 -36 -36z"/>
<path d="M4870 4205 c0 -14 -4 -25 -10 -25 -5 0 -10 -9 -10 -20 0 -11 5 -20
10 -20 6 0 10 -9 10 -20 0 -16 7 -20 36 -20 37 0 64 18 64 43 0 9 6 18 13 21
10 5 10 7 0 12 -7 3 -13 10 -13 16 0 20 -30 38 -64 38 -32 0 -36 -3 -36 -25z"/>
<path d="M5420 4351 c0 -11 -5 -21 -12 -23 -15 -5 35 -58 54 -58 8 0 20 9 28
20 8 11 20 20 27 20 7 0 13 9 13 20 0 11 -7 20 -15 20 -8 0 -15 5 -15 10 0 6
-18 10 -40 10 -33 0 -40 -3 -40 -19z"/>
<path d="M5413 4215 c-17 -19 -16 -83 1 -101 16 -16 86 -19 86 -4 0 6 7 10 15
10 11 0 15 12 15 45 0 33 -4 45 -15 45 -8 0 -15 5 -15 10 0 15 -73 11 -87 -5z"/>
<path d="M5080 3700 c0 -5 -5 -10 -11 -10 -14 0 -39 -26 -39 -40 0 -14 25 -40
38 -40 6 0 12 -5 14 -12 5 -14 58 34 58 52 0 11 -45 60 -55 60 -3 0 -5 -4 -5
-10z"/>
<path d="M4883 3575 c-18 -19 -33 -44 -33 -55 0 -34 -24 -50 -74 -50 -25 0
-46 -4 -46 -10 0 -5 -7 -10 -15 -10 -29 0 -65 -47 -65 -85 0 -19 5 -35 10 -35
6 0 10 -11 10 -25 0 -18 5 -25 20 -25 11 0 20 -4 20 -10 0 -5 9 -10 20 -10 11
0 20 -4 20 -10 0 -5 18 -10 40 -10 22 0 40 -4 40 -10 0 -15 70 -12 86 4 8 8
14 22 14 30 0 9 8 16 20 16 11 0 20 5 20 10 0 6 9 10 20 10 11 0 20 7 20 15 0
8 9 15 20 15 19 0 20 7 20 110 0 67 -4 110 -10 110 -5 0 -10 9 -10 20 0 13 -7
20 -20 20 -11 0 -20 5 -20 10 0 6 -17 10 -37 9 -30 0 -45 -8 -70 -34z"/>
<path d="M5180 3600 c0 -5 -9 -10 -20 -10 -13 0 -20 -7 -20 -20 0 -11 -4 -20
-10 -20 -6 0 -10 -43 -10 -110 l0 -110 30 0 c17 0 30 -5 30 -11 0 -14 26 -39
40 -39 17 0 40 -26 40 -44 0 -12 11 -16 50 -16 28 0 50 5 50 10 0 6 14 10 30
10 17 0 30 5 30 10 0 6 9 10 20 10 11 0 20 5 20 10 0 6 9 10 20 10 15 0 20 7
20 25 0 16 6 25 15 25 11 0 15 11 15 40 0 26 -5 40 -13 40 -7 0 -19 9 -27 20
-8 11 -22 20 -32 20 -10 0 -18 5 -18 10 0 6 -22 10 -50 10 -43 0 -50 3 -50 20
0 11 -4 20 -10 20 -5 0 -10 7 -10 15 0 9 -16 31 -35 50 -26 27 -43 35 -70 35
-19 0 -35 -4 -35 -10z"/>
<path d="M4540 3315 c0 -8 -4 -15 -10 -15 -5 0 -10 -7 -10 -16 0 -29 27 -44
79 -44 44 0 51 3 51 20 0 15 -7 20 -25 20 -20 0 -25 5 -25 25 0 21 -5 25 -30
25 -20 0 -30 -5 -30 -15z"/>
<path d="M5570 3307 c0 -12 -9 -29 -20 -37 -11 -8 -20 -18 -20 -22 0 -14 91
-9 106 6 16 17 19 46 4 46 -5 0 -10 7 -10 15 0 10 -10 15 -30 15 -25 0 -30 -4
-30 -23z"/>
<path d="M5030 3270 c0 -5 -7 -10 -15 -10 -26 0 -85 -66 -85 -95 0 -14 -4 -25
-10 -25 -5 0 -10 -13 -10 -30 0 -16 5 -30 10 -30 6 0 10 -11 10 -25 0 -29 40
-75 65 -75 8 0 15 -4 15 -10 0 -5 15 -10 34 -10 19 0 37 -6 40 -12 5 -10 7
-10 12 0 3 6 21 12 40 12 26 0 43 9 69 35 19 19 35 41 35 50 0 8 5 15 10 15 6
0 10 23 10 50 0 28 -4 50 -10 50 -5 0 -10 7 -10 15 0 20 -65 85 -85 85 -8 0
-15 5 -15 10 0 6 -25 10 -55 10 -30 0 -55 -4 -55 -10z"/>
<path d="M4583 3175 c-24 -25 -33 -95 -13 -95 6 0 10 -7 10 -15 0 -23 46 -65
70 -65 16 0 20 -6 20 -30 0 -16 -4 -30 -10 -30 -5 0 -10 -25 -10 -55 0 -30 5
-55 10 -55 6 0 10 -7 10 -16 0 -28 27 -44 74 -44 25 0 46 5 46 10 0 6 7 10 16
10 20 0 44 24 44 44 0 9 5 16 10 16 6 0 10 7 10 15 0 8 5 15 10 15 6 0 10 8
10 18 0 10 9 24 20 32 11 8 20 21 20 30 0 9 -9 22 -20 30 -11 8 -20 22 -20 32
0 10 -4 18 -10 18 -6 0 -10 27 -10 60 l0 60 -30 0 c-16 0 -30 5 -30 10 0 6
-13 10 -30 10 -16 0 -30 5 -30 10 0 6 -30 10 -72 9 -64 0 -76 -3 -95 -24z"/>
<path d="M5420 3190 c0 -5 -13 -10 -30 -10 -16 0 -30 -4 -30 -10 0 -5 -7 -10
-16 -10 -28 0 -44 -27 -44 -74 0 -25 -4 -46 -10 -46 -5 0 -10 -8 -10 -18 0
-10 -9 -24 -20 -32 -28 -20 -25 -37 10 -70 17 -15 30 -36 30 -47 0 -10 9 -25
20 -33 11 -8 20 -22 20 -32 0 -11 7 -18 20 -18 11 0 20 -4 20 -10 0 -5 22 -10
48 -10 36 0 51 5 62 20 8 11 20 20 27 20 9 0 13 19 13 65 0 51 -3 65 -15 65
-10 0 -15 10 -15 30 0 23 4 30 20 30 12 0 36 16 55 35 45 44 49 102 10 140
-21 22 -33 25 -95 25 -40 0 -70 -4 -70 -10z"/>
<path d="M4963 2905 c-7 -8 -13 -22 -13 -31 0 -9 -13 -29 -30 -44 -16 -15 -30
-35 -30 -44 0 -9 -4 -16 -10 -16 -5 0 -10 -25 -10 -56 0 -57 14 -84 44 -84 9
0 16 -4 16 -10 0 -5 14 -10 30 -10 17 0 30 5 30 10 0 6 9 10 20 10 11 0 20 5
20 10 0 6 11 10 25 10 14 0 25 5 25 10 0 18 35 11 50 -10 8 -12 26 -20 42 -20
15 0 28 -4 28 -10 0 -5 9 -10 20 -10 11 0 20 5 20 10 0 6 7 10 16 10 20 0 44
24 44 44 0 9 5 16 10 16 6 0 10 9 10 20 0 11 -4 20 -10 20 -5 0 -10 12 -10 26
0 16 -12 37 -30 54 -16 15 -30 35 -30 44 0 10 -11 28 -25 41 -24 25 -55 33
-55 15 0 -6 -28 -10 -65 -10 -37 0 -65 4 -65 10 0 15 -53 11 -67 -5z"/>
<path d="M4770 2720 c0 -5 -9 -10 -20 -10 -17 0 -20 -7 -20 -40 0 -36 2 -40
26 -40 35 0 54 22 54 64 0 29 -4 36 -20 36 -11 0 -20 -4 -20 -10z"/>
<path d="M5360 2694 c0 -42 19 -64 54 -64 24 0 26 4 26 40 0 33 -3 40 -20 40
-11 0 -20 5 -20 10 0 6 -9 10 -20 10 -16 0 -20 -7 -20 -36z"/>
<path d="M940 3240 c0 -11 -4 -20 -10 -20 -5 0 -10 -13 -10 -30 0 -16 -4 -30
-10 -30 -5 0 -10 -9 -10 -20 0 -11 -4 -20 -10 -20 -5 0 -10 -13 -10 -30 0 -16
-4 -30 -10 -30 -5 0 -10 -13 -10 -30 0 -16 -4 -30 -10 -30 -5 0 -10 -9 -10
-20 0 -11 -4 -20 -10 -20 -5 0 -10 -13 -10 -30 0 -16 -4 -30 -10 -30 -5 0 -10
-16 -10 -35 0 -19 -4 -35 -10 -35 -5 0 -10 -9 -10 -20 0 -11 -4 -20 -10 -20
-5 0 -10 -13 -10 -30 0 -16 -4 -30 -10 -30 -5 0 -10 -13 -10 -30 0 -16 -4 -30
-10 -30 -5 0 -10 -9 -10 -20 0 -11 -4 -20 -10 -20 -5 0 -10 -9 -10 -20 0 -17
7 -20 50 -20 43 0 50 3 50 20 0 11 5 20 10 20 6 0 10 9 10 20 0 11 5 20 10 20
6 0 10 14 10 30 0 17 5 30 10 30 6 0 10 14 10 30 0 17 5 30 10 30 6 0 10 9 10
20 0 11 5 20 10 20 6 0 10 16 10 35 0 19 5 35 10 35 6 0 10 14 10 30 0 17 5
30 10 30 6 0 10 9 10 20 0 11 5 20 10 20 6 0 10 14 10 30 0 17 5 30 10 30 6 0
10 14 10 30 0 17 5 30 10 30 6 0 10 9 10 20 0 11 5 20 10 20 6 0 10 14 10 30
0 17 5 30 10 30 6 0 10 9 10 20 0 17 -7 20 -50 20 -43 0 -50 -3 -50 -20z"/>
<path d="M1370 3240 c0 -11 -4 -20 -10 -20 -5 0 -10 -13 -10 -30 0 -16 -4 -30
-10 -30 -5 0 -10 -9 -10 -20 0 -11 -4 -20 -10 -20 -5 0 -10 -13 -10 -30 0 -16
-4 -30 -10 -30 -5 0 -10 -13 -10 -30 0 -16 -4 -30 -10 -30 -5 0 -10 -9 -10
-20 0 -11 -4 -20 -10 -20 -5 0 -10 -13 -10 -30 0 -16 -4 -30 -10 -30 -5 0 -10
-16 -10 -35 0 -19 -4 -35 -10 -35 -5 0 -10 -9 -10 -20 0 -11 -4 -20 -10 -20
-5 0 -10 -13 -10 -30 0 -16 -4 -30 -10 -30 -5 0 -10 -13 -10 -30 0 -16 -4 -30
-10 -30 -5 0 -10 -9 -10 -20 0 -11 -4 -20 -10 -20 -5 0 -10 -9 -10 -20 0 -17
7 -20 50 -20 43 0 50 3 50 20 0 11 5 20 10 20 6 0 10 9 10 20 0 11 5 20 10 20
6 0 10 14 10 30 0 17 5 30 10 30 6 0 10 14 10 30 0 17 5 30 10 30 6 0 10 9 10
20 0 11 5 20 10 20 6 0 10 16 10 35 0 19 5 35 10 35 6 0 10 14 10 30 0 17 5
30 10 30 6 0 10 9 10 20 0 11 5 20 10 20 6 0 10 14 10 30 0 17 5 30 10 30 6 0
10 14 10 30 0 17 5 30 10 30 6 0 10 9 10 20 0 11 5 20 10 20 6 0 10 14 10 30
0 17 5 30 10 30 6 0 10 9 10 20 0 17 -7 20 -50 20 -43 0 -50 -3 -50 -20z"/>
<path d="M1800 3240 c0 -11 -4 -20 -10 -20 -5 0 -10 -13 -10 -30 0 -16 -4 -30
-10 -30 -5 0 -10 -9 -10 -20 0 -11 -4 -20 -10 -20 -5 0 -10 -13 -10 -30 0 -16
-4 -30 -10 -30 -5 0 -10 -13 -10 -30 0 -16 -4 -30 -10 -30 -5 0 -10 -9 -10
-20 0 -11 -4 -20 -10 -20 -5 0 -10 -13 -10 -30 0 -16 -4 -30 -10 -30 -5 0 -10
-16 -10 -35 0 -19 -4 -35 -10 -35 -5 0 -10 -9 -10 -20 0 -11 -4 -20 -10 -20
-5 0 -10 -13 -10 -30 0 -16 -4 -30 -10 -30 -5 0 -10 -13 -10 -30 0 -16 -4 -30
-10 -30 -5 0 -10 -9 -10 -20 0 -11 -4 -20 -10 -20 -5 0 -10 -9 -10 -20 0 -17
7 -20 50 -20 43 0 50 3 50 20 0 11 5 20 10 20 6 0 10 9 10 20 0 11 5 20 10 20
6 0 10 14 10 30 0 17 5 30 10 30 6 0 10 14 10 30 0 17 5 30 10 30 6 0 10 9 10
20 0 11 5 20 10 20 6 0 10 16 10 35 0 19 5 35 10 35 6 0 10 14 10 30 0 17 5
30 10 30 6 0 10 9 10 20 0 11 5 20 10 20 6 0 10 14 10 30 0 17 5 30 10 30 6 0
10 14 10 30 0 17 5 30 10 30 6 0 10 9 10 20 0 11 5 20 10 20 6 0 10 14 10 30
0 17 5 30 10 30 6 0 10 9 10 20 0 17 -7 20 -50 20 -43 0 -50 -3 -50 -20z"/>
<path d="M2230 3240 c0 -11 -4 -20 -10 -20 -5 0 -10 -13 -10 -30 0 -16 -4 -30
-10 -30 -5 0 -10 -9 -10 -20 0 -11 -4 -20 -10 -20 -5 0 -10 -13 -10 -30 0 -16
-4 -30 -10 -30 -5 0 -10 -13 -10 -30 0 -16 -4 -30 -10 -30 -5 0 -10 -9 -10
-20 0 -11 -4 -20 -10 -20 -5 0 -10 -13 -10 -30 0 -16 -4 -30 -10 -30 -5 0 -10
-16 -10 -35 0 -19 -4 -35 -10 -35 -5 0 -10 -9 -10 -20 0 -11 -4 -20 -10 -20
-5 0 -10 -13 -10 -30 0 -16 -4 -30 -10 -30 -5 0 -10 -13 -10 -30 0 -16 -4 -30
-10 -30 -5 0 -10 -9 -10 -20 0 -11 -7 -20 -15 -20 -8 0 -15 -9 -15 -20 0 -18
7 -20 55 -20 48 0 55 2 55 20 0 11 5 20 10 20 6 0 10 9 10 20 0 11 5 20 10 20
6 0 10 14 10 30 0 17 5 30 10 30 6 0 10 14 10 30 0 17 5 30 10 30 6 0 10 9 10
20 0 11 5 20 10 20 6 0 10 16 10 35 0 19 5 35 10 35 6 0 10 14 10 30 0 17 5
30 10 30 6 0 10 9 10 20 0 11 5 20 10 20 6 0 10 14 10 30 0 17 5 30 10 30 6 0
10 14 10 30 0 17 5 30 10 30 6 0 10 9 10 20 0 11 5 20 10 20 6 0 10 14 10 30
0 17 5 30 10 30 6 0 10 9 10 20 0 17 -7 20 -50 20 -43 0 -50 -3 -50 -20z"/>
<path d="M2660 3240 c0 -11 -4 -20 -10 -20 -5 0 -10 -13 -10 -30 0 -16 -4 -30
-10 -30 -5 0 -10 -9 -10 -20 0 -11 -4 -20 -10 -20 -5 0 -10 -13 -10 -30 0 -16
-4 -30 -10 -30 -5 0 -10 -13 -10 -30 0 -16 -4 -30 -10 -30 -5 0 -10 -9 -10
-20 0 -11 -4 -20 -10 -20 -5 0 -10 -13 -10 -30 0 -16 -4 -30 -10 -30 -5 0 -10
-16 -10 -35 0 -19 -4 -35 -10 -35 -5 0 -10 -9 -10 -20 0 -11 -4 -20 -10 -20
-5 0 -10 -13 -10 -30 0 -16 -4 -30 -10 -30 -5 0 -10 -13 -10 -30 0 -16 -4 -30
-10 -30 -5 0 -10 -9 -10 -20 0 -11 -7 -20 -15 -20 -8 0 -15 -9 -15 -20 0 -18
7 -20 55 -20 48 0 55 2 55 20 0 11 5 20 10 20 6 0 10 9 10 20 0 11 5 20 10 20
6 0 10 14 10 30 0 17 5 30 10 30 6 0 10 14 10 30 0 17 5 30 10 30 6 0 10 9 10
20 0 11 5 20 10 20 6 0 10 16 10 35 0 19 5 35 10 35 6 0 10 14 10 30 0 17 5
30 10 30 6 0 10 9 10 20 0 11 5 20 10 20 6 0 10 14 10 30 0 17 5 30 10 30 6 0
10 14 10 30 0 17 5 30 10 30 6 0 10 9 10 20 0 11 5 20 10 20 6 0 10 14 10 30
0 17 5 30 10 30 6 0 10 9 10 20 0 17 -7 20 -50 20 -43 0 -50 -3 -50 -20z"/>
<path d="M3090 3240 c0 -11 -4 -20 -10 -20 -5 0 -10 -13 -10 -30 0 -16 -4 -30
-10 -30 -5 0 -10 -9 -10 -20 0 -11 -4 -20 -10 -20 -5 0 -10 -13 -10 -30 0 -16
-4 -30 -10 -30 -5 0 -10 -13 -10 -30 0 -16 -4 -30 -10 -30 -5 0 -10 -9 -10
-20 0 -11 -4 -20 -10 -20 -5 0 -10 -13 -10 -30 0 -16 -4 -30 -10 -30 -5 0 -10
-16 -10 -35 0 -19 -4 -35 -10 -35 -5 0 -10 -9 -10 -20 0 -11 -4 -20 -10 -20
-5 0 -10 -13 -10 -30 0 -16 -4 -30 -10 -30 -5 0 -10 -13 -10 -30 0 -20 -5 -30
-15 -30 -8 0 -15 -9 -15 -20 0 -11 -4 -20 -10 -20 -5 0 -10 -9 -10 -20 0 -18
7 -20 55 -20 48 0 55 2 55 20 0 11 5 20 10 20 6 0 10 9 10 20 0 11 5 20 10 20
6 0 10 14 10 30 0 17 5 30 10 30 6 0 10 14 10 30 0 17 5 30 10 30 6 0 10 9 10
20 0 11 5 20 10 20 6 0 10 16 10 35 0 19 5 35 10 35 6 0 10 14 10 30 0 17 5
30 10 30 6 0 10 9 10 20 0 11 5 20 10 20 6 0 10 14 10 30 0 17 5 30 10 30 6 0
10 14 10 30 0 17 5 30 10 30 6 0 10 9 10 20 0 11 5 20 10 20 6 0 10 14 10 30
0 17 5 30 10 30 6 0 10 9 10 20 0 17 -7 20 -50 20 -43 0 -50 -3 -50 -20z"/>
<path d="M3540 3240 c0 -11 -4 -20 -10 -20 -5 0 -10 -13 -10 -30 0 -16 -4 -30
-10 -30 -5 0 -10 -9 -10 -20 0 -11 -4 -20 -10 -20 -5 0 -10 -13 -10 -30 0 -16
-4 -30 -10 -30 -5 0 -10 -13 -10 -30 0 -16 -4 -30 -10 -30 -5 0 -10 -9 -10
-20 0 -11 -4 -20 -10 -20 -5 0 -10 -13 -10 -30 0 -16 -4 -30 -10 -30 -5 0 -10
-16 -10 -35 0 -19 -4 -35 -10 -35 -5 0 -10 -9 -10 -20 0 -11 -4 -20 -10 -20
-5 0 -10 -13 -10 -30 0 -16 -4 -30 -10 -30 -5 0 -10 -13 -10 -30 0 -16 -4 -30
-10 -30 -5 0 -10 -9 -10 -20 0 -11 -7 -20 -15 -20 -8 0 -15 -9 -15 -20 0 -18
7 -20 55 -20 48 0 55 2 55 20 0 11 5 20 10 20 6 0 10 9 10 20 0 11 5 20 10 20
6 0 10 14 10 30 0 17 5 30 10 30 6 0 10 14 10 30 0 17 5 30 10 30 6 0 10 9 10
20 0 11 5 20 10 20 6 0 10 16 10 35 0 19 5 35 10 35 6 0 10 14 10 30 0 17 5
30 10 30 6 0 10 9 10 20 0 11 5 20 10 20 6 0 10 14 10 30 0 17 5 30 10 30 6 0
10 14 10 30 0 17 5 30 10 30 6 0 10 9 10 20 0 11 5 20 10 20 6 0 10 14 10 30
0 17 5 30 10 30 6 0 10 9 10 20 0 17 -7 20 -50 20 -43 0 -50 -3 -50 -20z"/>
<path d="M6750 3240 c0 -11 -4 -20 -10 -20 -5 0 -10 -13 -10 -30 0 -16 -4 -30
-10 -30 -5 0 -10 -9 -10 -20 0 -11 -4 -20 -10 -20 -5 0 -10 -13 -10 -30 0 -16
-4 -30 -10 -30 -5 0 -10 -13 -10 -30 0 -16 -4 -30 -10 -30 -5 0 -10 -9 -10
-20 0 -11 -4 -20 -10 -20 -5 0 -10 -13 -10 -30 0 -16 -4 -30 -10 -30 -5 0 -10
-16 -10 -35 0 -19 -4 -35 -10 -35 -5 0 -10 -9 -10 -20 0 -11 -4 -20 -10 -20
-5 0 -10 -13 -10 -30 0 -16 -4 -30 -10 -30 -5 0 -10 -13 -10 -30 0 -16 -4 -30
-10 -30 -5 0 -10 -9 -10 -20 0 -11 -4 -20 -10 -20 -5 0 -10 -9 -10 -20 0 -17
7 -20 50 -20 43 0 50 3 50 20 0 11 5 20 10 20 6 0 10 9 10 20 0 11 5 20 10 20
6 0 10 14 10 30 0 17 5 30 10 30 6 0 10 14 10 30 0 17 5 30 10 30 6 0 10 9 10
20 0 11 5 20 10 20 6 0 10 16 10 35 0 19 5 35 10 35 6 0 10 14 10 30 0 17 5
30 10 30 6 0 10 9 10 20 0 11 5 20 10 20 6 0 10 14 10 30 0 17 5 30 10 30 6 0
10 14 10 30 0 17 5 30 10 30 6 0 10 9 10 20 0 11 5 20 10 20 6 0 10 14 10 30
0 20 5 30 15 30 8 0 15 9 15 20 0 18 -7 20 -55 20 -48 0 -55 -2 -55 -20z"/>
<path d="M7180 3240 c0 -11 -4 -20 -10 -20 -5 0 -10 -13 -10 -30 0 -16 -4 -30
-10 -30 -5 0 -10 -9 -10 -20 0 -11 -4 -20 -10 -20 -5 0 -10 -13 -10 -30 0 -16
-4 -30 -10 -30 -5 0 -10 -13 -10 -30 0 -16 -4 -30 -10 -30 -5 0 -10 -9 -10
-20 0 -11 -4 -20 -10 -20 -5 0 -10 -13 -10 -30 0 -16 -4 -30 -10 -30 -5 0 -10
-16 -10 -35 0 -19 -4 -35 -10 -35 -5 0 -10 -9 -10 -20 0 -11 -4 -20 -10 -20
-5 0 -10 -13 -10 -30 0 -16 -4 -30 -10 -30 -5 0 -10 -13 -10 -30 0 -16 -4 -30
-10 -30 -5 0 -10 -9 -10 -20 0 -11 -4 -20 -10 -20 -5 0 -10 -9 -10 -20 0 -17
7 -20 50 -20 43 0 50 3 50 20 0 11 5 20 10 20 6 0 10 9 10 20 0 11 5 20 10 20
6 0 10 14 10 30 0 17 5 30 10 30 6 0 10 14 10 30 0 17 5 30 10 30 6 0 10 9 10
20 0 11 5 20 10 20 6 0 10 16 10 35 0 19 5 35 10 35 6 0 10 14 10 30 0 17 5
30 10 30 6 0 10 9 10 20 0 11 5 20 10 20 6 0 10 14 10 30 0 17 5 30 10 30 6 0
10 14 10 30 0 17 5 30 10 30 6 0 10 9 10 20 0 11 5 20 10 20 6 0 10 14 10 30
0 20 5 30 15 30 8 0 15 9 15 20 0 18 -7 20 -55 20 -48 0 -55 -2 -55 -20z"/>
<path d="M7610 3240 c0 -11 -4 -20 -10 -20 -5 0 -10 -13 -10 -30 0 -16 -4 -30
-10 -30 -5 0 -10 -9 -10 -20 0 -11 -4 -20 -10 -20 -5 0 -10 -13 -10 -30 0 -16
-4 -30 -10 -30 -5 0 -10 -13 -10 -30 0 -16 -4 -30 -10 -30 -5 0 -10 -9 -10
-20 0 -11 -4 -20 -10 -20 -5 0 -10 -13 -10 -30 0 -16 -4 -30 -10 -30 -5 0 -10
-16 -10 -35 0 -19 -4 -35 -10 -35 -5 0 -10 -9 -10 -20 0 -11 -4 -20 -10 -20
-5 0 -10 -13 -10 -30 0 -16 -4 -30 -10 -30 -5 0 -10 -13 -10 -30 0 -16 -4 -30
-10 -30 -5 0 -10 -9 -10 -20 0 -11 -4 -20 -10 -20 -5 0 -10 -9 -10 -20 0 -17
7 -20 50 -20 43 0 50 3 50 20 0 11 5 20 10 20 6 0 10 9 10 20 0 11 5 20 10 20
6 0 10 14 10 30 0 17 5 30 10 30 6 0 10 14 10 30 0 17 5 30 10 30 6 0 10 9 10
20 0 11 5 20 10 20 6 0 10 16 10 35 0 19 5 35 10 35 6 0 10 14 10 30 0 17 5
30 10 30 6 0 10 9 10 20 0 11 5 20 10 20 6 0 10 14 10 30 0 17 5 30 10 30 6 0
10 14 10 30 0 17 5 30 10 30 6 0 10 9 10 20 0 11 5 20 10 20 6 0 10 14 10 30
0 17 5 30 10 30 6 0 10 9 10 20 0 17 -7 20 -50 20 -43 0 -50 -3 -50 -20z"/>
<path d="M8040 3240 c0 -11 -4 -20 -10 -20 -5 0 -10 -13 -10 -30 0 -16 -4 -30
-10 -30 -5 0 -10 -9 -10 -20 0 -11 -4 -20 -10 -20 -5 0 -10 -13 -10 -30 0 -16
-4 -30 -10 -30 -5 0 -10 -13 -10 -30 0 -16 -4 -30 -10 -30 -5 0 -10 -9 -10
-20 0 -11 -4 -20 -10 -20 -5 0 -10 -13 -10 -30 0 -16 -4 -30 -10 -30 -5 0 -10
-16 -10 -35 0 -19 -4 -35 -10 -35 -5 0 -10 -9 -10 -20 0 -11 -4 -20 -10 -20
-5 0 -10 -13 -10 -30 0 -16 -4 -30 -10 -30 -5 0 -10 -13 -10 -30 0 -16 -4 -30
-10 -30 -5 0 -10 -9 -10 -20 0 -11 -4 -20 -10 -20 -5 0 -10 -9 -10 -20 0 -17
7 -20 50 -20 43 0 50 3 50 20 0 11 5 20 10 20 6 0 10 9 10 20 0 11 5 20 10 20
6 0 10 14 10 30 0 17 5 30 10 30 6 0 10 14 10 30 0 17 5 30 10 30 6 0 10 9 10
20 0 11 5 20 10 20 6 0 10 16 10 35 0 19 5 35 10 35 6 0 10 14 10 30 0 17 5
30 10 30 6 0 10 9 10 20 0 11 5 20 10 20 6 0 10 14 10 30 0 17 5 30 10 30 6 0
10 14 10 30 0 17 5 30 10 30 6 0 10 9 10 20 0 11 5 20 10 20 6 0 10 14 10 30
0 17 5 30 10 30 6 0 10 9 10 20 0 17 -7 20 -50 20 -43 0 -50 -3 -50 -20z"/>
<path d="M8470 3240 c0 -11 -4 -20 -10 -20 -5 0 -10 -13 -10 -30 0 -16 -4 -30
-10 -30 -5 0 -10 -9 -10 -20 0 -11 -4 -20 -10 -20 -5 0 -10 -13 -10 -30 0 -16
-4 -30 -10 -30 -5 0 -10 -13 -10 -30 0 -16 -4 -30 -10 -30 -5 0 -10 -9 -10
-20 0 -11 -4 -20 -10 -20 -5 0 -10 -13 -10 -30 0 -16 -4 -30 -10 -30 -5 0 -10
-16 -10 -35 0 -19 -4 -35 -10 -35 -5 0 -10 -9 -10 -20 0 -11 -4 -20 -10 -20
-5 0 -10 -13 -10 -30 0 -16 -4 -30 -10 -30 -5 0 -10 -13 -10 -30 0 -16 -4 -30
-10 -30 -5 0 -10 -9 -10 -20 0 -11 -4 -20 -10 -20 -5 0 -10 -9 -10 -20 0 -17
7 -20 50 -20 43 0 50 3 50 20 0 11 5 20 10 20 6 0 10 9 10 20 0 11 5 20 10 20
6 0 10 14 10 30 0 17 5 30 10 30 6 0 10 14 10 30 0 17 5 30 10 30 6 0 10 9 10
20 0 11 5 20 10 20 6 0 10 16 10 35 0 19 5 35 10 35 6 0 10 14 10 30 0 17 5
30 10 30 6 0 10 9 10 20 0 11 5 20 10 20 6 0 10 14 10 30 0 17 5 30 10 30 6 0
10 14 10 30 0 17 5 30 10 30 6 0 10 9 10 20 0 11 5 20 10 20 6 0 10 14 10 30
0 17 5 30 10 30 6 0 10 9 10 20 0 17 -7 20 -50 20 -43 0 -50 -3 -50 -20z"/>
<path d="M8900 3240 c0 -11 -4 -20 -10 -20 -5 0 -10 -13 -10 -30 0 -16 -4 -30
-10 -30 -5 0 -10 -9 -10 -20 0 -11 -4 -20 -10 -20 -5 0 -10 -13 -10 -30 0 -16
-4 -30 -10 -30 -5 0 -10 -13 -10 -30 0 -16 -4 -30 -10 -30 -5 0 -10 -9 -10
-20 0 -11 -4 -20 -10 -20 -5 0 -10 -13 -10 -30 0 -16 -4 -30 -10 -30 -5 0 -10
-16 -10 -35 0 -19 -4 -35 -10 -35 -5 0 -10 -9 -10 -20 0 -11 -4 -20 -10 -20
-5 0 -10 -13 -10 -30 0 -16 -4 -30 -10 -30 -5 0 -10 -13 -10 -30 0 -16 -4 -30
-10 -30 -5 0 -10 -9 -10 -20 0 -11 -4 -20 -10 -20 -5 0 -10 -9 -10 -20 0 -17
7 -20 50 -20 43 0 50 3 50 20 0 11 5 20 10 20 6 0 10 9 10 20 0 11 5 20 10 20
6 0 10 14 10 30 0 17 5 30 10 30 6 0 10 14 10 30 0 17 5 30 10 30 6 0 10 9 10
20 0 11 5 20 10 20 6 0 10 16 10 35 0 19 5 35 10 35 6 0 10 14 10 30 0 17 5
30 10 30 6 0 10 9 10 20 0 11 5 20 10 20 6 0 10 14 10 30 0 17 5 30 10 30 6 0
10 14 10 30 0 17 5 30 10 30 6 0 10 9 10 20 0 11 5 20 10 20 6 0 10 14 10 30
0 17 5 30 10 30 6 0 10 9 10 20 0 17 -7 20 -50 20 -43 0 -50 -3 -50 -20z"/>
<path d="M9350 3240 c0 -11 -4 -20 -10 -20 -5 0 -10 -13 -10 -30 0 -16 -4 -30
-10 -30 -5 0 -10 -9 -10 -20 0 -11 -4 -20 -10 -20 -5 0 -10 -13 -10 -30 0 -16
-4 -30 -10 -30 -5 0 -10 -13 -10 -30 0 -16 -4 -30 -10 -30 -5 0 -10 -9 -10
-20 0 -11 -4 -20 -10 -20 -5 0 -10 -13 -10 -30 0 -16 -4 -30 -10 -30 -5 0 -10
-16 -10 -35 0 -19 -4 -35 -10 -35 -5 0 -10 -9 -10 -20 0 -11 -4 -20 -10 -20
-5 0 -10 -13 -10 -30 0 -16 -4 -30 -10 -30 -5 0 -10 -13 -10 -30 0 -16 -4 -30
-10 -30 -5 0 -10 -9 -10 -20 0 -11 -4 -20 -10 -20 -5 0 -10 -9 -10 -20 0 -17
7 -20 50 -20 43 0 50 3 50 20 0 11 5 20 10 20 6 0 10 9 10 20 0 11 5 20 10 20
6 0 10 14 10 30 0 17 5 30 10 30 6 0 10 14 10 30 0 17 5 30 10 30 6 0 10 9 10
20 0 11 5 20 10 20 6 0 10 16 10 35 0 19 5 35 10 35 6 0 10 14 10 30 0 17 5
30 10 30 6 0 10 9 10 20 0 11 5 20 10 20 6 0 10 14 10 30 0 17 5 30 10 30 6 0
10 14 10 30 0 17 5 30 10 30 6 0 10 9 10 20 0 11 5 20 10 20 6 0 10 14 10 30
0 17 5 30 10 30 6 0 10 9 10 20 0 17 -7 20 -50 20 -43 0 -50 -3 -50 -20z"/>
<path d="M1510 2150 c0 -5 -13 -10 -30 -10 -16 0 -30 -4 -30 -10 0 -5 -7 -10
-15 -10 -23 0 -125 -106 -125 -130 0 -11 -4 -20 -10 -20 -5 0 -10 -13 -10 -30
0 -16 -4 -30 -10 -30 -7 0 -10 -157 -10 -450 0 -293 3 -450 10 -450 6 0 10
-13 10 -30 0 -16 5 -30 10 -30 6 0 10 -7 10 -15 0 -20 105 -125 125 -125 8 0
15 -4 15 -10 0 -5 14 -10 30 -10 17 0 30 -4 30 -10 0 -6 45 -10 115 -10 70 0
115 4 115 10 0 6 9 10 20 10 11 0 20 5 20 10 0 6 9 10 20 10 11 0 20 5 20 10
0 6 7 10 16 10 19 0 44 24 44 42 0 8 9 20 20 28 11 8 20 22 20 32 0 10 5 18
10 18 6 0 10 9 10 20 0 11 5 20 10 20 6 0 10 23 10 50 0 28 5 50 10 50 6 0 10
28 10 65 l0 65 -100 0 -100 0 0 -75 c0 -43 -4 -75 -10 -75 -5 0 -10 -9 -10
-20 0 -11 -4 -20 -10 -20 -5 0 -10 -9 -10 -20 0 -13 -7 -20 -20 -20 -11 0 -20
-4 -20 -10 0 -6 -33 -10 -80 -10 -79 0 -82 1 -115 35 -22 21 -35 44 -35 60 0
14 -4 25 -10 25 -6 0 -10 130 -10 370 0 240 4 370 10 370 6 0 10 11 10 25 0
37 61 95 100 95 16 0 30 5 30 10 0 6 9 10 20 10 11 0 20 -4 20 -10 0 -5 14
-10 30 -10 17 0 30 -4 30 -10 0 -5 7 -10 16 -10 23 0 44 -25 44 -54 0 -14 5
-26 10 -26 6 0 10 -30 10 -70 l0 -70 100 0 100 0 0 60 c0 33 -4 60 -10 60 -5
0 -10 23 -10 50 0 28 -4 50 -10 50 -5 0 -10 15 -10 33 0 21 -7 38 -20 47 -11
8 -20 20 -20 28 0 18 -66 82 -85 82 -8 0 -15 5 -15 10 0 6 -13 10 -30 10 -16
0 -30 5 -30 10 0 6 -45 10 -115 10 -70 0 -115 -4 -115 -10z"/>
<path d="M5830 2150 c0 -5 -13 -10 -30 -10 -16 0 -30 -4 -30 -10 0 -5 -7 -10
-15 -10 -23 0 -125 -106 -125 -130 0 -11 -4 -20 -10 -20 -5 0 -10 -13 -10 -30
0 -16 -4 -30 -10 -30 -7 0 -10 -157 -10 -450 0 -293 3 -450 10 -450 6 0 10
-13 10 -30 0 -16 5 -30 10 -30 6 0 10 -7 10 -15 0 -20 105 -125 125 -125 8 0
15 -4 15 -10 0 -5 14 -10 30 -10 17 0 30 -4 30 -10 0 -6 45 -10 115 -10 70 0
115 4 115 10 0 6 9 10 20 10 11 0 20 5 20 10 0 6 9 10 20 10 11 0 20 5 20 10
0 6 7 10 16 10 19 0 44 24 44 42 0 8 9 20 20 28 11 8 20 22 20 32 0 10 5 18
10 18 6 0 10 9 10 20 0 11 5 20 10 20 6 0 10 23 10 50 0 28 5 50 10 50 6 0 10
28 10 65 l0 65 -100 0 -100 0 0 -75 c0 -43 -4 -75 -10 -75 -5 0 -10 -9 -10
-20 0 -11 -4 -20 -10 -20 -5 0 -10 -9 -10 -20 0 -13 -7 -20 -20 -20 -11 0 -20
-4 -20 -10 0 -6 -33 -10 -80 -10 -79 0 -82 1 -115 35 -22 21 -35 44 -35 60 0
14 -4 25 -10 25 -6 0 -10 130 -10 370 0 240 4 370 10 370 6 0 10 11 10 25 0
34 61 95 95 95 14 0 25 5 25 10 0 6 9 10 20 10 11 0 20 -4 20 -10 0 -5 16 -10
35 -10 19 0 35 -4 35 -10 0 -5 7 -10 16 -10 23 0 44 -25 44 -54 0 -14 5 -26
10 -26 6 0 10 -30 10 -70 l0 -70 100 0 100 0 0 60 c0 33 -4 60 -10 60 -5 0
-10 23 -10 50 0 28 -4 50 -10 50 -5 0 -10 15 -10 33 0 21 -7 38 -20 47 -11 8
-20 20 -20 28 0 18 -66 82 -85 82 -8 0 -15 5 -15 10 0 6 -13 10 -30 10 -16 0
-30 5 -30 10 0 6 -45 10 -115 10 -70 0 -115 -4 -115 -10z"/>
<path d="M410 1575 c0 -370 3 -565 10 -565 6 0 10 -13 10 -30 0 -16 5 -30 10
-30 6 0 10 -7 10 -15 0 -20 105 -125 125 -125 8 0 15 -4 15 -10 0 -5 14 -10
30 -10 17 0 30 -4 30 -10 0 -6 45 -10 115 -10 70 0 115 4 115 10 0 6 9 10 20
10 11 0 20 5 20 10 0 6 9 10 20 10 11 0 20 5 20 10 0 6 7 10 16 10 19 0 44 24
44 42 0 8 9 20 20 28 11 8 20 22 20 32 0 10 5 18 10 18 6 0 10 9 10 20 0 11 7
20 15 20 11 0 15 12 15 50 0 28 5 50 10 50 7 0 10 182 10 525 l0 525 -105 0
-105 0 0 -510 c0 -333 -3 -510 -10 -510 -5 0 -10 -18 -10 -40 0 -33 -7 -47
-35 -75 -33 -34 -37 -35 -110 -35 -43 0 -75 4 -75 10 0 6 -5 10 -11 10 -16 0
-39 26 -39 44 0 9 -4 16 -10 16 -7 0 -10 188 -10 545 l0 545 -100 0 -100 0 0
-565z"/>
<path d="M2130 1465 l0 -675 355 0 355 0 0 100 0 100 -255 0 -255 0 0 575 0
575 -100 0 -100 0 0 -675z"/>
<path d="M3170 2120 c0 -11 -4 -20 -10 -20 -6 0 -10 -28 -10 -65 0 -37 -4 -65
-10 -65 -6 0 -10 -30 -10 -70 0 -40 -4 -70 -10 -70 -6 0 -10 -27 -10 -60 0
-33 -4 -60 -10 -60 -6 0 -10 -30 -10 -70 0 -40 -4 -70 -10 -70 -6 0 -10 -28
-10 -65 0 -37 -4 -65 -10 -65 -6 0 -10 -30 -10 -70 0 -40 -4 -70 -10 -70 -6 0
-10 -27 -10 -60 0 -33 -4 -60 -10 -60 -6 0 -10 -32 -10 -75 0 -43 -4 -75 -10
-75 -6 0 -10 -27 -10 -60 0 -33 -4 -60 -10 -60 -6 0 -10 -27 -10 -60 l0 -60
86 0 c104 0 114 7 114 84 0 31 5 56 10 56 6 0 10 27 10 60 l0 60 145 0 145 0
0 -40 c0 -22 5 -40 10 -40 6 0 10 -30 10 -70 0 -40 4 -70 10 -70 6 0 10 -9 10
-20 0 -19 7 -20 100 -20 60 0 100 4 100 10 0 6 -4 10 -10 10 -6 0 -10 27 -10
60 0 33 -4 60 -10 60 -6 0 -10 30 -10 70 0 40 -4 70 -10 70 -6 0 -10 28 -10
65 0 37 -4 65 -10 65 -6 0 -10 30 -10 70 0 40 -4 70 -10 70 -6 0 -10 27 -10
60 0 33 -4 60 -10 60 -6 0 -10 32 -10 75 0 43 -4 75 -10 75 -6 0 -10 27 -10
60 0 33 -4 60 -10 60 -6 0 -10 30 -10 70 0 40 -4 70 -10 70 -6 0 -10 28 -10
65 0 37 -4 65 -10 65 -6 0 -10 30 -10 70 l0 70 -175 0 c-168 0 -175 -1 -175
-20z m190 -280 c0 -40 4 -70 10 -70 6 0 10 -27 10 -60 0 -33 4 -60 10 -60 6 0
10 -32 10 -75 0 -43 4 -75 10 -75 6 0 10 -30 10 -70 0 -40 4 -70 10 -70 6 0
10 -27 10 -60 l0 -60 -105 0 -105 0 0 40 c0 22 5 40 10 40 6 0 10 30 10 70 0
40 4 70 10 70 6 0 10 32 10 75 0 43 4 75 10 75 6 0 10 30 10 70 0 56 3 70 15
70 12 0 15 13 15 60 0 33 4 60 10 60 6 0 10 9 10 20 0 11 5 20 10 20 6 0 10
-30 10 -70z"/>
<path d="M3870 1465 l0 -675 90 0 90 0 0 390 c0 215 3 390 6 390 15 0 34 -32
34 -59 0 -17 5 -31 10 -31 6 0 10 -9 10 -20 0 -11 5 -20 10 -20 6 0 10 -13 10
-30 0 -16 5 -30 10 -30 6 0 10 -9 10 -20 0 -11 5 -20 10 -20 6 0 10 -13 10
-30 0 -20 5 -30 15 -30 10 0 15 -10 15 -30 0 -16 5 -30 10 -30 6 0 10 -9 10
-20 0 -11 5 -20 10 -20 6 0 10 -13 10 -30 0 -16 5 -30 10 -30 6 0 10 -11 10
-25 0 -14 5 -25 10 -25 6 0 10 -13 10 -30 0 -16 5 -30 10 -30 6 0 10 -9 10
-20 0 -11 5 -20 10 -20 6 0 10 -13 10 -30 0 -16 5 -30 10 -30 6 0 10 -9 10
-20 0 -11 5 -20 10 -20 6 0 10 -12 10 -26 0 -45 20 -54 124 -54 l96 0 0 675 0
675 -100 0 -100 0 0 -390 c0 -253 -4 -390 -10 -390 -5 0 -10 9 -10 20 0 11 -4
20 -10 20 -5 0 -10 9 -10 20 0 11 -4 20 -10 20 -5 0 -10 14 -10 30 0 17 -4 30
-10 30 -5 0 -10 16 -10 35 0 19 -4 35 -10 35 -5 0 -10 9 -10 20 0 11 -4 20
-10 20 -5 0 -10 14 -10 30 0 17 -4 30 -10 30 -5 0 -10 9 -10 20 0 11 -4 20
-10 20 -5 0 -10 14 -10 30 0 17 -4 30 -10 30 -5 0 -10 9 -10 20 0 11 -7 20
-15 20 -10 0 -15 10 -15 30 0 17 -4 30 -10 30 -5 0 -10 9 -10 20 0 11 -4 20
-10 20 -5 0 -10 14 -10 30 0 17 -4 30 -10 30 -5 0 -10 11 -10 25 0 14 -4 25
-10 25 -5 0 -10 14 -10 30 0 17 -4 30 -10 30 -5 0 -10 7 -10 16 0 34 -26 44
-114 44 l-86 0 0 -675z"/>
<path d="M6410 2130 c0 -5 5 -10 10 -10 6 0 10 -13 10 -30 0 -16 5 -30 10 -30
6 0 10 -13 10 -30 0 -16 5 -30 10 -30 6 0 10 -16 10 -35 0 -19 5 -35 10 -35 6
0 10 -13 10 -30 0 -16 5 -30 10 -30 6 0 10 -18 10 -40 0 -22 5 -40 10 -40 6 0
10 -13 10 -30 0 -16 5 -30 10 -30 6 0 10 -13 10 -30 0 -16 5 -30 10 -30 6 0
10 -13 10 -30 0 -16 5 -30 10 -30 6 0 10 -13 10 -30 0 -16 5 -30 10 -30 6 0
10 -16 10 -35 0 -19 5 -35 10 -35 6 0 10 -13 10 -30 0 -16 5 -30 10 -30 6 0
10 -13 10 -30 0 -16 5 -30 10 -30 6 0 10 -13 10 -30 0 -16 5 -30 10 -30 6 0
10 -92 10 -255 l0 -255 105 0 105 0 0 245 c0 157 4 245 10 245 6 0 10 14 10
30 0 17 5 30 10 30 6 0 10 14 10 30 0 17 5 30 10 30 6 0 10 14 10 30 0 17 5
30 10 30 6 0 10 14 10 30 0 17 5 30 10 30 6 0 10 20 10 45 0 25 5 45 10 45 6
0 10 14 10 30 0 17 5 30 10 30 6 0 10 14 10 30 0 17 5 30 10 30 6 0 10 14 10
30 0 17 5 30 10 30 6 0 10 14 10 30 0 17 5 30 10 30 6 0 10 14 10 30 0 17 5
30 10 30 6 0 10 14 10 30 0 17 5 30 10 30 6 0 10 16 10 35 0 19 5 35 10 35 6
0 10 14 10 30 0 17 5 30 10 30 6 0 10 9 10 20 0 19 -7 20 -100 20 -93 0 -100
-1 -100 -20 0 -11 -4 -20 -10 -20 -5 0 -10 -13 -10 -30 0 -16 -4 -30 -10 -30
-5 0 -10 -16 -10 -35 0 -19 -4 -35 -10 -35 -5 0 -10 -13 -10 -30 0 -16 -4 -30
-10 -30 -5 0 -10 -13 -10 -30 0 -16 -4 -30 -10 -30 -5 0 -10 -13 -10 -30 0
-16 -4 -30 -10 -30 -5 0 -10 -13 -10 -30 0 -20 -5 -30 -15 -30 -10 0 -15 -10
-15 -30 0 -16 -4 -30 -10 -30 -5 0 -10 -13 -10 -30 0 -23 -4 -30 -20 -30 -17
0 -20 7 -20 40 0 22 -4 40 -10 40 -5 0 -10 14 -10 30 0 17 -4 30 -10 30 -5 0
-10 14 -10 30 0 17 -4 30 -10 30 -5 0 -10 14 -10 30 0 17 -4 30 -10 30 -5 0
-10 14 -10 30 0 17 -4 30 -10 30 -5 0 -10 16 -10 35 0 19 -4 35 -10 35 -5 0
-10 14 -10 30 0 17 -4 30 -10 30 -5 0 -10 12 -10 26 0 45 -20 54 -124 54 -57
0 -96 -4 -96 -10z"/>
<path d="M7330 1465 l0 -675 215 0 c137 0 215 4 215 10 0 6 18 10 40 10 22 0
40 5 40 10 0 6 9 10 20 10 11 0 20 5 20 10 0 6 7 10 15 10 19 0 85 64 85 82 0
8 9 20 20 28 12 8 20 26 20 42 0 15 5 28 10 28 6 0 10 25 10 55 0 30 5 55 10
55 6 0 10 23 10 50 0 28 -4 50 -10 50 -5 0 -10 23 -10 50 0 28 -4 50 -10 50
-5 0 -10 9 -10 20 0 11 -4 20 -10 20 -5 0 -10 7 -10 16 0 8 -24 38 -52 66 -31
30 -48 53 -40 56 6 2 12 8 12 14 0 5 14 23 30 38 18 17 30 38 30 54 0 14 5 26
10 26 6 0 10 22 10 49 0 30 5 52 13 55 10 5 10 7 0 12 -8 4 -13 27 -13 65 0
33 -4 59 -10 59 -5 0 -10 14 -10 30 0 17 -4 30 -10 30 -5 0 -10 9 -10 20 0 24
-82 110 -105 110 -8 0 -15 5 -15 10 0 6 -9 10 -20 10 -11 0 -20 5 -20 10 0 6
-20 10 -45 10 -25 0 -45 5 -45 10 0 6 -70 10 -190 10 l-190 0 0 -675z m320
475 c0 -5 18 -10 40 -10 33 0 47 -7 75 -35 19 -19 35 -41 35 -50 0 -8 5 -15
10 -15 6 0 10 -30 10 -70 0 -40 -4 -70 -10 -70 -5 0 -10 -9 -10 -20 0 -11 -4
-20 -10 -20 -5 0 -10 -9 -10 -20 0 -13 -7 -20 -20 -20 -11 0 -20 -4 -20 -10 0
-5 -16 -10 -35 -10 -19 0 -35 -4 -35 -10 0 -16 -129 -12 -146 4 -19 20 -21
329 -1 351 14 17 127 21 127 5z m90 -570 c0 -5 7 -10 15 -10 26 0 85 -66 85
-95 0 -14 5 -25 10 -25 6 0 10 -27 10 -60 0 -33 -4 -60 -10 -60 -5 0 -10 -11
-10 -25 0 -14 -4 -25 -10 -25 -5 0 -10 -7 -10 -16 0 -20 -24 -44 -44 -44 -9 0
-16 -4 -16 -10 0 -5 -20 -10 -45 -10 -25 0 -45 -4 -45 -10 0 -16 -129 -12
-146 4 -11 12 -14 53 -14 205 l0 191 115 0 c70 0 115 -4 115 -10z"/>
<path d="M8190 1465 l0 -675 355 0 355 0 0 100 0 100 -255 0 -255 0 0 185 0
185 225 0 225 0 0 105 0 105 -225 0 -225 0 0 180 0 180 255 0 255 0 0 105 0
105 -355 0 -355 0 0 -675z"/>
<path d="M9020 1465 l0 -675 105 0 105 0 0 275 0 275 70 0 70 0 0 -30 c0 -16
5 -30 10 -30 6 0 10 -13 10 -30 0 -16 5 -30 10 -30 6 0 10 -13 10 -30 0 -16 5
-30 10 -30 6 0 10 -16 10 -35 0 -19 5 -35 10 -35 6 0 10 -13 10 -30 0 -16 5
-30 10 -30 6 0 10 -13 10 -30 0 -20 5 -30 15 -30 10 0 15 -10 15 -30 0 -16 5
-30 10 -30 6 0 10 -13 10 -30 0 -16 5 -30 10 -30 6 0 10 -13 10 -30 l0 -30
110 0 c103 0 110 1 110 20 0 11 -4 20 -10 20 -5 0 -10 9 -10 20 0 11 -4 20
-10 20 -5 0 -10 14 -10 30 0 17 -4 30 -10 30 -5 0 -10 14 -10 30 0 17 -4 30
-10 30 -5 0 -10 14 -10 30 0 17 -4 30 -10 30 -5 0 -10 16 -10 35 0 19 -4 35
-10 35 -5 0 -10 14 -10 30 0 17 -4 30 -10 30 -5 0 -10 14 -10 30 0 17 -4 30
-10 30 -5 0 -10 14 -10 30 0 17 -4 30 -10 30 -5 0 -10 14 -10 30 0 17 -4 30
-10 30 -5 0 -10 5 -10 10 0 6 8 10 18 10 10 0 24 9 32 20 8 11 20 20 28 20 17
0 42 25 42 42 0 8 9 20 20 28 11 8 20 25 20 37 0 13 5 23 10 23 6 0 10 14 10
30 0 17 5 30 10 30 6 0 10 50 10 130 0 80 -4 130 -10 130 -5 0 -10 14 -10 30
0 17 -4 30 -10 30 -5 0 -10 9 -10 20 0 11 -4 20 -10 20 -5 0 -10 5 -10 10 0
16 -88 100 -105 100 -8 0 -15 5 -15 10 0 6 -9 10 -20 10 -11 0 -20 5 -20 10 0
6 -16 10 -35 10 -19 0 -35 5 -35 10 0 6 -82 10 -225 10 l-225 0 0 -675z m370
475 c0 -5 18 -10 40 -10 22 0 40 -4 40 -10 0 -5 5 -10 10 -10 17 0 60 -47 60
-65 0 -8 5 -15 10 -15 6 0 10 -37 10 -90 0 -53 -4 -90 -10 -90 -5 0 -10 -7
-10 -15 0 -18 -43 -65 -60 -65 -5 0 -10 -4 -10 -10 0 -5 -13 -10 -30 -10 -20
0 -30 -5 -30 -15 0 -12 -17 -15 -90 -15 l-90 0 0 215 0 215 80 0 c47 0 80 -4
80 -10z"/>
<path d="M4690 510 l0 -50 385 0 385 0 0 50 0 50 -385 0 -385 0 0 -50z"/>
</g>
</svg>
